<svg version="1.2" xmlns="http://www.w3.org/2000/svg" viewBox="0 0 650 650" width="650" height="650">
	<title>Uppingham All Blacks logo</title>
	<style>
		.s0 { fill: #010101 }
		.s1 { fill: #ffffff }
	</style>
	<path id="Layer" class="s0" d="m-425-425h1500v1500h-1500z"/>
	<g id="Layer">
						<g id="Layer">
							<path id="Layer" class="s1" d="m325 502.6c-98.3 0-177.7-79.4-177.7-177.6 0-98.2 79.4-177.6 177.7-177.6 98.3 0 177.7 79.4 177.7 177.6 0 98.2-79.4 177.6-177.7 177.6z"/>
									<g id="Layer">
											<path id="Layer" class="s0" d="m276.8 210.8c0.6 7.5 1.6 15 3 22.4 39.7-16.4 82-17.7 120.5-6.6-20.9-16-47-25.5-75.3-25.5-17.1 0-33.4 3.5-48.2 9.7z"/>
											<path id="Layer" class="s0" d="m281.5 240.7c3.3 13.1 8.1 25.9 14.4 38.2 45.8-15.9 95.2-13.1 139 7.9 3.2 1.6 6.4 3.2 9.5 5-5.5-19.9-15.9-37.8-29.7-52.3-41.4-16.5-89.1-17.3-133.2 1.2z"/>
											<path id="Layer" class="s0" d="m244.5 249.4c3.5 45.9 24.3 87.6 58.8 118 7.4-12.8 13.3-26.6 17.4-41.3-30.6-31.4-47.7-71.1-51.2-111.8-9.2 4.6-17.7 10.3-25.4 16.9q-0.3 9.1 0.4 18.2z"/>
											<path id="Layer" class="s0" d="m250.3 423.9c6.2-4.2 12.1-8.7 17.7-13.6-33.9-26.1-56.2-61.9-66-100.6-0.6 5-0.9 10.1-0.9 15.3 0 40.4 19.3 76.2 49.2 98.9z"/>
											<path id="Layer" class="s0" d="m379.5 323c-10 52.9-42.1 96.2-84.9 122.1 9.7 2.5 19.9 3.8 30.4 3.8 10.4 0 20.5-1.3 30.1-3.7q0.2-0.1 0.4-0.3c36-28.8 58.8-69.6 64.4-115.2-13-3.8-26.6-6-40.4-6.7z"/>
											<path id="Layer" class="s0" d="m371.7 322.8c-14.4 0-29.1 1.8-43.7 5.5-11.5 41-36.4 76-71 100.2 8.5 5.6 17.8 10.2 27.6 13.6 43.7-24.2 76.8-66.7 87.1-119.3z"/>
											<path id="Layer" class="s0" d="m448.9 325c0-7.9-0.7-15.6-2.1-23.1q-7.4-4.5-15.2-8.2c-41.6-20-88.4-22.8-132-8 7.2 12.5 16.1 24.4 26.6 35.2 42.5-10.8 85.5-5.7 122.5 11.5q0.2-3.7 0.2-7.4z"/>
											<path id="Layer" class="s0" d="m427.3 332c-5.4 41.1-24.1 78.3-53.5 106.9 39.7-17 68.6-54 74.1-98.4q-10-4.9-20.6-8.5z"/>
											<path id="Layer" class="s0" d="m273.7 405c9.7-9.3 18.2-19.7 25.5-31-36.5-31.7-58.7-75.7-62.3-124-0.3-3.9-0.4-7.7-0.5-11.6-14.1 14.4-24.7 32.3-30.5 52.2 6.5 44 29.6 85.6 67.8 114.4z"/>
										</g>
						</g>
						<g id="text-0">
							<path id="Layer" fill-rule="evenodd" class="s1" d="m118.6 237.9l-13.9-0.9-7 18.9 11 8.4-3.4 9-44.4-36.2 4.6-12.2 57.2 2zm-26.7 13.7l5.6-15.1-19.7-1.3-8.2-1-0.2 0.7 6.8 4.6z"/>
							<path id="Layer" class="s1" d="m153.8 181.2l-18.1 25.1-44-31.9 6.6-9 38 27.5 12.4-17z"/>
							<path id="Layer" class="s1" d="m197.3 143.3l-23.9 19.6-34.4-42 8.6-7.1 29.8 36.3 16.3-13.3z"/>
							<path id="Layer" fill-rule="evenodd" class="s1" d="m271.1 81.3q2.2 0 4.5 0.5 2.3 0.5 4.3 1.7 2 1.1 3.5 2.9 1.5 1.8 2.2 4.2 0.8 3.1 0.2 6.4-0.7 3.4-3 6.6-2.2 3.2-6.1 5.8-3.8 2.6-9.3 4.1l-16.3 4.5-14.3-52.4 18-4.9q4.6-1.3 8.4-1.3 3.8-0.1 6.6 0.9 2.8 0.9 4.5 2.6 1.7 1.8 2.4 4.1 0.5 1.9 0.2 3.8-0.2 1.8-1 3.7-0.8 1.8-2.1 3.5-1.3 1.7-2.7 3.3zm-15.8 9.9l4.6 16.8 6.5-1.8q2.8-0.7 4.6-2.1 1.8-1.3 2.8-2.9 1-1.6 1.1-3.3 0.2-1.8-0.2-3.5-0.6-2-1.8-3.3-1.3-1.3-3-1.8-1.7-0.6-3.8-0.5-2.2 0.1-4.6 0.7zm-1.8-6.7l11-3q1.6-1.8 2.3-4.1 0.6-2.3 0-4.8-0.5-1.6-1.5-2.8-1-1.1-2.5-1.7-1.4-0.6-3.3-0.6-1.9 0-4 0.6l-6.1 1.6z"/>
							<path id="Layer" class="s1" d="m347.1 106.6l-30.9-0.3 0.7-54.3 11.1 0.1-0.5 47 21.1 0.2z"/>
							<path id="Layer" fill-rule="evenodd" class="s1" d="m405.4 122.4l0.1-13.9-19.1-6.1-7.9 11.4-9.1-2.9 33.9-46.2 12.5 4 0.8 57.3zm-15-26l15.3 4.9 0.4-19.8 0.6-8.2-0.7-0.2-4.3 7z"/>
							<path id="Layer" class="s1" d="m477.1 152.5l-3 4.5q-2.4 0.3-5-0.1-2.5-0.4-5-1.3-2.4-0.8-4.6-1.9-2.2-1.2-4-2.4-4.6-3.1-7.4-7.3-2.9-4.3-3.8-9.1-0.9-4.8 0.3-9.9 1.1-5.2 4.5-10.1 2.6-3.9 5.8-6.5 3.2-2.6 6.8-4.1 3.6-1.5 7.4-2 3.8-0.4 7.5 0.1 3.8 0.5 7.4 1.9 3.7 1.4 6.9 3.7 1 0.7 2.3 1.7 1.3 1 2.7 2.2 1.4 1.3 2.8 2.7 1.4 1.4 2.7 3l-5.9 5.6-0.8-0.2q-2.1-3.4-4.3-5.8-2.3-2.3-4.3-3.7-3.3-2.3-6.9-2.9-3.7-0.7-7.2 0.1-3.5 0.9-6.6 3.2-3.2 2.3-5.7 5.8-2.4 3.6-3.5 7.5-1 3.8-0.6 7.6 0.5 3.7 2.6 7 2.1 3.4 6 6.1 2.7 1.8 5.9 3 3.2 1.2 7 1.6z"/>
							<path id="Layer" class="s1" d="m538.4 155.5l-42.8 33.3-6.9-8.8 42.9-33.3zm-20 62.7l-8.4-10.8 9.2-32.8 34.2 0.2 6.8 8.7-32.6-1.7z"/>
							<path id="Layer" class="s1" d="m539.1 251q0.7 1.9 1.8 3.3 1 1.5 2.4 2.4 1.3 0.9 2.9 1.1 1.6 0.2 3.3-0.4 2-0.8 3.1-2.3 1-1.6 1.5-3.6 0.4-2.1 0.5-4.5 0.1-2.4 0.2-5 0.1-2.5 0.4-5.1 0.3-2.5 1.3-4.7 0.9-2.2 2.8-4.1 1.8-1.8 4.8-3 3.5-1.3 6.7-1 3.2 0.3 6.1 1.9 2.8 1.7 5.1 4.7 2.3 2.9 3.9 7.1 0.4 1.1 0.9 2.7 0.5 1.6 1 3.4 0.4 1.8 0.8 3.8 0.3 2.1 0.5 4.1l-8 1.3-0.6-0.5q0.1-2.1 0-3.9-0.1-1.9-0.3-3.6-0.3-1.6-0.6-3-0.4-1.4-0.8-2.4-0.7-1.8-1.6-3.1-1-1.3-2.2-2-1.1-0.8-2.5-0.9-1.4-0.1-2.9 0.5-2 0.8-3.1 2.3-1 1.6-1.5 3.6-0.5 2.1-0.6 4.6-0.1 2.4-0.2 4.9-0.1 2.6-0.4 5.1-0.3 2.6-1.2 4.8-1 2.2-2.7 4-1.7 1.8-4.7 3-3.4 1.2-6.8 1-3.4-0.3-6.5-2-3-1.8-5.6-4.9-2.6-3.1-4.2-7.5-0.7-1.7-1.2-3.7-0.5-2-0.9-4.2-0.3-2.2-0.5-4.4-0.2-2.3-0.1-4.6l8.1-1.2 0.6 0.6q-0.5 4.5-0.4 8.3 0.1 3.9 1.4 7.1z"/>
							<path id="Layer" class="s1" d="m71.9 332c0-3.5 2.8-6.3 6.3-6.3 3.5 0 6.3 2.8 6.3 6.3 0 3.4-2.8 6.3-6.3 6.3-3.5 0-6.3-2.9-6.3-6.3z"/>
							<path id="Layer" class="s1" d="m560.7 332c0-3.5 2.8-6.3 6.3-6.3 3.5 0 6.3 2.8 6.3 6.3 0 3.4-2.8 6.3-6.3 6.3-3.5 0-6.3-2.9-6.3-6.3z"/>
						</g>
						<g id="text-1">
							<path id="Layer" class="s1" d="m121.6 390l3.8 10.7-32.7 11.8q-3.3 1.2-5.3 3-2.1 1.8-3.1 4-1 2.1-1 4.5-0.1 2.3 0.7 4.5 0.9 2.3 2.4 4 1.5 1.7 3.6 2.6 2 0.9 4.7 0.9 2.7 0 5.8-1.2l33-11.9 3.1 8.7-32 11.6q-4 1.5-8.2 1.5-4.1 0-7.9-1.6-3.8-1.6-7-5-3.1-3.4-5.1-8.9-1.6-4.6-1.7-8.8 0-4.2 1.6-7.8 1.5-3.5 4.8-6.3 3.2-2.8 8.1-4.6z"/>
							<path id="Layer" class="s1" d="m149.5 462.3l-38.1 28.7-6.8-9 43.9-33.2 11 14.6q3 4 4.5 7.9 1.5 4 1.5 7.6-0.1 3.6-1.8 6.8-1.7 3.1-4.9 5.5-3.5 2.7-7.3 3.5-3.9 0.8-7.5 0.1-3.6-0.7-6.8-2.8-3.3-2.1-5.6-5.2-0.3-0.4-0.7-0.9-0.3-0.5-0.6-1.1l5.8-3.7q0.2 0.4 0.5 0.8 0.2 0.4 0.5 0.7 1.2 1.6 2.8 2.5 1.7 0.8 3.5 0.9 1.8 0.1 3.8-0.6 1.9-0.8 3.9-2.2 2.4-1.8 3.6-3.8 1.2-1.9 1.3-4 0.2-2-0.6-4.1-0.8-2.2-2.4-4.3z"/>
							<path id="Layer" class="s1" d="m191.7 505l-28.7 38.1-9-6.8 33.1-44 14.5 10.9q4 3.1 6.6 6.5 2.5 3.3 3.4 6.8 1 3.5 0.2 7-0.7 3.5-3.2 6.7-2.6 3.6-6.1 5.4-3.4 1.8-7.1 2.1-3.7 0.3-7.4-0.8-3.6-1.1-6.8-3.5-0.4-0.3-0.8-0.6-0.5-0.4-1-0.9l4.6-5.1q0.3 0.3 0.7 0.5 0.3 0.3 0.6 0.6 1.7 1.2 3.5 1.6 1.8 0.4 3.6-0.1 1.7-0.4 3.4-1.6 1.7-1.3 3.2-3.2 1.8-2.4 2.4-4.6 0.6-2.2 0.2-4.2-0.4-2-1.8-3.8-1.3-1.9-3.5-3.5z"/>
							<path id="Layer" class="s1" d="m248.1 529.3l-22.6 50.1-10.4-4.6 22.7-50.1z"/>
							<path id="Layer" class="s1" d="m269.7 591.2l-9.1-1.6 9.3-54.2 15.3 2.6 15.1 35.6 2.7 8.3 0.7 0.1 1-8.6 5.3-31.2 9.1 1.6-9.2 54.2-11.1-1.9-18.5-43.3-2.4-7.9-0.7-0.1-0.9 8.3z"/>
							<path id="Layer" class="s1" d="m388.2 562.1l3.8 23.6q-5 2.9-9.6 4.5-4.6 1.6-9 2.3-6.8 1.1-12.3 0-5.6-1-9.7-3.8-4.1-2.9-6.6-7.4-2.6-4.5-3.6-10.4-0.7-4.8-0.2-9 0.5-4.3 2-7.9 1.6-3.7 4.1-6.7 2.5-3 5.7-5.3 3.2-2.2 7-3.7 3.7-1.5 7.8-2.2 1.3-0.2 3.1-0.3 1.7-0.2 3.6-0.3 2-0.1 4 0 2.1 0.1 4.1 0.3l-0.4 8.2-0.7 0.5q-4-1.1-7.4-1.2-3.4-0.1-5.9 0.3-4.3 0.7-7.5 2.7-3.3 2-5.3 5.1-2 3.1-2.8 7.1-0.7 4 0 8.5 0.7 4.3 2.5 7.9 1.9 3.6 4.7 6 2.7 2.5 6.4 3.6 3.6 1.1 7.9 0.4 1.6-0.3 3.7-0.9 2-0.6 3.8-1.5l-3.1-18.8z"/>
							<path id="Layer" class="s1" d="m437.4 570.2l-10.1 5.1-25-49 10.1-5.1 10.4 20.3 22.3-11.4-10.4-20.3 10.1-5.1 25 49-10.1 5.1-11.2-22.1-22.4 11.4z"/>
							<path id="Layer" fill-rule="evenodd" class="s1" d="m522.3 505.2l-12.6-6.4-14.1 14.7 6.8 12.3-6.8 7-26.6-51.6 9.2-9.5 52.4 25zm-30.4 1.9l11.3-11.7-17.8-9.2-7.2-4.2-0.5 0.5 4.5 7z"/>
							<path id="Layer" class="s1" d="m552 461.3l-4.2 8.8-47.9-27.4 6.9-14.6 33.1 4.6 9.2 1.9 0.3-0.6-7.4-6-24.5-22.6 7.2-15.3 51.7 19.5-5.1 10.9-36.3-14.8-8.4-3.7-0.4 0.7 7.1 5.9 29.5 27.1-4.4 9.4-39.7-5.5-9.1-1.7-0.4 0.8 8.3 4z"/>
						</g>
						<g id="Layer">
							<path id="Layer" fill-rule="evenodd" class="s1" d="m12.5 325c0-172.5 139.9-312.3 312.5-312.3 172.6 0 312.5 139.8 312.5 312.3 0 172.5-139.9 312.3-312.5 312.3-172.6 0-312.5-139.8-312.5-312.3zm312.5 308c170.2 0 308.2-137.9 308.2-308 0-170.1-138-308-308.2-308-170.2 0-308.2 137.9-308.2 308 0 170.1 138 308 308.2 308z"/>
						</g>
					</g>
</svg>